<?xml version="1.0" encoding="utf-8"?>
<!-- Generator: Adobe Illustrator 27.4.1, SVG Export Plug-In . SVG Version: 6.00 Build 0)  -->
<svg version="1.1" id="Layer_1" xmlns="http://www.w3.org/2000/svg" xmlns:xlink="http://www.w3.org/1999/xlink" x="0px" y="0px"
	 viewBox="0 0 228.95 270.28" style="enable-background:new 0 0 228.95 270.28;" xml:space="preserve">
<style type="text/css">
	.st0{fill:#03B0DD;}
</style>
<g>
	<g>
		<g>
			<path class="st0" d="M9.41,207.41l108.97,62.86V141.76c0-5.02,2.68-9.65,7.02-12.16l99.63-57.48c5.21-3.01,5.21-10.53,0-13.53
				L127.78,2.52c-5.82-3.35-12.98-3.35-18.8,0L7.03,61.31C2.68,63.81,0,68.45,0,73.47l0,117.65C0,197.84,3.59,204.05,9.41,207.41z"
				/>
		</g>
	</g>
	<g>
		<path class="st0" d="M225.04,126.86l-25.32-14.63l-59.25,34.18v42.77l84.56-48.8C230.25,137.38,230.25,129.87,225.04,126.86z"/>
	</g>
	<g>
		<path class="st0" d="M225.03,195.24l-25.55-14.75l-58.99,34.04v42.91l84.54-48.67C230.23,205.77,230.24,198.25,225.03,195.24z"/>
	</g>
</g>
<g>
	<g>
		<g>
			<path class="st0" d="M9.41,207.41l108.97,62.86V141.76c0-5.02,2.68-9.65,7.02-12.16l99.63-57.48c5.21-3.01,5.21-10.53,0-13.53
				L127.78,2.52c-5.82-3.35-12.98-3.35-18.8,0L7.03,61.31C2.68,63.81,0,68.45,0,73.47l0,117.65C0,197.84,3.59,204.05,9.41,207.41z"
				/>
		</g>
	</g>
	<g>
		<path class="st0" d="M225.04,126.86l-25.32-14.63l-59.25,34.18v42.77l84.56-48.8C230.25,137.38,230.25,129.87,225.04,126.86z"/>
	</g>
	<g>
		<path class="st0" d="M225.03,195.24l-25.55-14.75l-58.99,34.04v42.91l84.54-48.67C230.23,205.77,230.24,198.25,225.03,195.24z"/>
	</g>
</g>
<g>
	<g>
		<g>
			<path class="st0" d="M9.41,207.41l108.97,62.86V141.76c0-5.02,2.68-9.65,7.02-12.16l99.63-57.48c5.21-3.01,5.21-10.53,0-13.53
				L127.78,2.52c-5.82-3.35-12.98-3.35-18.8,0L7.03,61.31C2.68,63.81,0,68.45,0,73.47l0,117.65C0,197.84,3.59,204.05,9.41,207.41z"
				/>
		</g>
	</g>
	<g>
		<path class="st0" d="M225.04,126.86l-25.32-14.63l-59.25,34.18v42.77l84.56-48.8C230.25,137.38,230.25,129.87,225.04,126.86z"/>
	</g>
	<g>
		<path class="st0" d="M225.03,195.24l-25.55-14.75l-58.99,34.04v42.91l84.54-48.67C230.23,205.77,230.24,198.25,225.03,195.24z"/>
	</g>
</g>
<g>
	<g>
		<g>
			<path class="st0" d="M9.41,207.41l108.97,62.86V141.76c0-5.02,2.68-9.65,7.02-12.16l99.63-57.48c5.21-3.01,5.21-10.53,0-13.53
				L127.78,2.52c-5.82-3.35-12.98-3.35-18.8,0L7.03,61.31C2.68,63.81,0,68.45,0,73.47l0,117.65C0,197.84,3.59,204.05,9.41,207.41z"
				/>
		</g>
	</g>
	<g>
		<path class="st0" d="M225.04,126.86l-25.32-14.63l-59.25,34.18v42.77l84.56-48.8C230.25,137.38,230.25,129.87,225.04,126.86z"/>
	</g>
	<g>
		<path class="st0" d="M225.03,195.24l-25.55-14.75l-58.99,34.04v42.91l84.54-48.67C230.23,205.77,230.24,198.25,225.03,195.24z"/>
	</g>
</g>
</svg>
