<svg xmlns="http://www.w3.org/2000/svg" x="0px" y="0px"
     viewBox="0 0 64 64" style="enable-background:new 0 0 64 64;" xml:space="preserve">
    <path fill="#167ABF" d="M6,9.5h13.7c0.6,0,1,0.5,1,1v42.9c0,0.6-0.5,1-1,1H6c-0.6,0-1-0.5-1-1V10.5C5,10,5.5,9.5,6,9.5z"/>
    <path fill="#167ABF" d="M58,9.5H26.3c-0.6,0-1,0.5-1,1v42.9c0,0.6,0.5,1,1,1H58c0.6,0,1-0.5,1-1V10.5C59,10,58.5,9.5,58,9.5z"/>
    <rect x="29.8" y="14.6" fill="#FFFFFF" width="18" height="3.4"/>
    <rect x="29.8" y="46.1" fill="#FFFFFF" width="18" height="3.4"/>
    <rect x="36.5" y="38.2" fill="#FFFFFF" width="18" height="3.4"/>
    <rect x="36.5" y="30.3" fill="#FFFFFF" width="18" height="3.4"/>
    <rect x="36.5" y="22.4" fill="#FFFFFF" width="18" height="3.4"/>
    <path fill="#73AFD9" d="M19.7,9.5H6c-0.6,0-1,0.5-1,1v42.9c0,0.6,0.5,1,1,1h0.4c-0.5,0-0.8-0.4-0.8-0.8V11c0-0.5,0.4-0.8,0.8-0.8h13.4
	c0.5,0,0.8,0.4,0.8,0.8v-0.4C20.8,10,20.3,9.5,19.7,9.5z"/>
    <path fill="#73AFD9" d="M57.9,9.5H26.3c-0.6,0-1,0.5-1,1v42.9c0,0.6,0.5,1,1,1h0.4c-0.5,0-0.8-0.4-0.8-0.8V11c0-0.5,0.4-0.8,0.8-0.8
	h31.4c0.5,0,0.8,0.4,0.8,0.8v-0.4C58.9,10,58.5,9.5,57.9,9.5z"/>
    <path fill="#000000" d="M19.7,54.6H6c-0.6,0-1.2-0.5-1.2-1.2V10.5c0-0.6,0.5-1.2,1.2-1.2h13.7c0.6,0,1.2,0.5,1.2,1.2v42.9
	C20.9,54.1,20.4,54.6,19.7,54.6z M6,9.6c-0.5,0-0.9,0.4-0.9,0.9v42.9c0,0.5,0.4,0.9,0.9,0.9h13.7c0.5,0,0.9-0.4,0.9-0.9V10.5
	c0-0.5-0.4-0.9-0.9-0.9H6z"/>
    <path fill="#000000" d="M58,54.6H26.3c-0.6,0-1.2-0.5-1.2-1.2V10.5c0-0.6,0.5-1.2,1.2-1.2H58c0.6,0,1.2,0.5,1.2,1.2v42.9
	C59.1,54.1,58.6,54.6,58,54.6z M26.3,9.6c-0.5,0-0.9,0.4-0.9,0.9v42.9c0,0.5,0.4,0.9,0.9,0.9H58c0.5,0,0.9-0.4,0.9-0.9V10.5
	c0-0.5-0.4-0.9-0.9-0.9H26.3z"/>
    <path fill="#000000" d="M47.9,18.1H29.6v-3.6h18.3V18.1z M29.9,17.8h17.7v-3.1H29.9V17.8z"/>
    <path fill="#000000" d="M47.9,49.6H29.6v-3.6h18.3V49.6z M29.9,49.3h17.7v-3.1H29.9V49.3z"/>
    <path fill="#000000" d="M54.6,41.7H36.4v-3.6h18.3L54.6,41.7z M36.6,41.4h17.7l0-3.1H36.6V41.4z"/>
    <path fill="#000000" d="M54.6,33.8H36.4v-3.6h18.3L54.6,33.8z M36.6,33.6h17.7l0-3.1H36.6V33.6z"/>
    <path fill="#000000" d="M54.6,25.9H36.4v-3.6h18.3L54.6,25.9z M36.6,25.7h17.7l0-3.1H36.6V25.7z"/>
</svg>
