<?xml version="1.0" encoding="UTF-8"?>
<svg xmlns="http://www.w3.org/2000/svg" width="64" height="64" viewBox="0 0 64 64">
    <rect x="25.45" y="9.64" width="33.43" height="44.73" rx=".81" ry=".81" fill="#167abf"/>
    <rect x="5.12" y="9.64" width="15.37" height="44.73" rx=".81" ry=".81" fill="#167abf"/>
    <rect x="29.96" y="14.72" width="17.62" height="2.95" fill="#fff"/>
    <rect x="29.96" y="46.34" width="17.62" height="2.95" fill="#fff"/>
    <rect x="36.74" y="38.43" width="17.62" height="2.95" fill="#fff"/>
    <rect x="36.74" y="30.53" width="17.62" height="2.95" fill="#fff"/>
    <rect x="36.74" y="22.62" width="17.62" height="2.95" fill="#fff"/>
    <path d="m19.68,54.8H5.93c-.69,0-1.25-.56-1.25-1.25V10.45c0-.69.56-1.25,1.25-1.25h13.74c.69,0,1.25.56,1.25,1.25v43.1c0,.69-.56,1.25-1.25,1.25ZM5.93,9.64c-.45,0-.81.36-.81.81v43.1c0,.45.36.81.81.81h13.74c.45,0,.81-.36.81-.81V10.45c0-.45-.36-.81-.81-.81H5.93Z" fill="#231f20"/>
    <path d="m58.07,54.8h-31.81c-.69,0-1.25-.56-1.25-1.25V10.45c0-.69.56-1.25,1.25-1.25h31.81c.69,0,1.25.56,1.25,1.25v43.1c0,.69-.56,1.25-1.25,1.25ZM26.26,9.64c-.45,0-.81.36-.81.81v43.1c0,.45.36.81.81.81h31.81c.45,0,.81-.36.81-.81V10.45c0-.45-.36-.81-.81-.81h-31.81Z" fill="#231f20"/>
    <path d="m48.03,18.11h-18.51v-3.83h18.51v3.83Zm-18.07-.44h17.62v-2.95h-17.62v2.95Z" fill="#231f20"/>
    <path d="m48.03,49.72h-18.51v-3.83h18.51v3.83Zm-18.07-.44h17.62v-2.95h-17.62v2.95Z" fill="#231f20"/>
    <path d="m54.8,41.82h-18.51v-3.83h18.51v3.83Zm-18.07-.44h17.62v-2.95s-17.62,0-17.62,0v2.95Z" fill="#231f20"/>
    <path d="m54.8,33.91h-18.51v-3.83h18.51v3.83Zm-18.07-.44h17.62v-2.95s-17.62,0-17.62,0v2.95Z" fill="#231f20"/>
    <path d="m54.8,26.01h-18.51v-3.83h18.51v3.83Zm-18.07-.44h17.62v-2.95s-17.62,0-17.62,0v2.95Z" fill="#231f20"/>
    <path d="m19.68,9.64H5.93c-.45,0-.81.36-.81.81v43.1c0,.4.29.74.68.8-.16-.15-.26-.37-.26-.61V10.9c0-.47.38-.85.85-.85h13.48c.24,0,.46.1.61.26-.06-.38-.4-.68-.8-.68Z" fill="#73afd9"/>
    <path d="m58.07,9.64h-31.81c-.45,0-.81.36-.81.81v43.1c0,.4.29.74.68.8-.16-.15-.26-.37-.26-.61V10.9c0-.47.38-.85.85-.85h31.51c.27,0,.51.12.66.32-.04-.41-.39-.73-.81-.73Z" fill="#73afd9"/>
</svg>
