<?xml version="1.0" encoding="utf-8"?>
<!-- Generator: Adobe Illustrator 27.5.0, SVG Export Plug-In . SVG Version: 6.00 Build 0)  -->
<svg version="1.1" id="Layer_1" xmlns="http://www.w3.org/2000/svg" xmlns:xlink="http://www.w3.org/1999/xlink" x="0px" y="0px"
	 viewBox="0 0 132.8 133.6" style="enable-background:new 0 0 132.8 133.6;" xml:space="preserve">
<style type="text/css">
	.st0{fill:#0091E2;}
</style>
<g>
	<path class="st0" d="M126.7,56.1c-0.3-0.3-3.4-2.6-10-2.6c-1.7,0-3.5,0.2-5.2,0.5c-1.2-8.7-8.5-12.9-8.8-13.2l-1.8-1l-1.1,1.6
		c-1.4,2.2-2.5,4.7-3.1,7.3c-1.2,5-0.5,9.6,2.1,13.6c-3,1.7-7.9,2.1-8.9,2.2H8.8c-2.1,0-3.8,1.7-3.8,3.8C4.9,75.3,6,82.4,8.5,89.1
		c2.8,7.3,6.9,12.7,12.3,16c6,3.7,15.9,5.8,27,5.8c5,0,10-0.5,15-1.4c6.9-1.2,13.5-3.7,19.6-7.1c5-2.9,9.5-6.6,13.3-10.9
		c6.4-7.2,10.3-15.3,13.1-22.5c0.4,0,0.7,0,1.1,0c7,0,11.3-2.8,13.7-5.2c1.6-1.5,2.8-3.3,3.7-5.4l0.5-1.5L126.7,56.1L126.7,56.1z
		 M76.6,62.1h10.8c0.5,0,1-0.4,1-1v-9.7c0-0.5-0.4-1-1-1l0,0H76.6c-0.5,0-1,0.4-1,1l0,0v9.7C75.7,61.7,76.1,62.1,76.6,62.1
		L76.6,62.1z M61.5,34.3h10.8c0.5,0,1-0.4,1-1v-9.7c0-0.5-0.5-1-1-1H61.5c-0.5,0-1,0.4-1,1l0,0v9.7C60.5,33.9,60.9,34.3,61.5,34.3
		L61.5,34.3z M61.5,48.2h10.8c0.5,0,1-0.5,1-1v-9.7c0-0.5-0.5-1-1-1H61.5c-0.5,0-1,0.4-1,1l0,0v9.7C60.5,47.8,60.9,48.2,61.5,48.2
		L61.5,48.2z M46.5,48.2h10.8c0.5,0,1-0.5,1-1v-9.7c0-0.5-0.4-1-1-1l0,0H46.5c-0.5,0-1,0.4-1,1l0,0v9.7
		C45.5,47.8,45.9,48.2,46.5,48.2L46.5,48.2z M31.3,48.2h10.8c0.5,0,1-0.5,1-1v-9.7c0-0.5-0.4-1-1-1l0,0H31.3c-0.5,0-1,0.4-1,1v9.7
		C30.3,47.8,30.7,48.2,31.3,48.2L31.3,48.2z M61.5,62.1h10.8c0.5,0,1-0.4,1-1v-9.7c0-0.5-0.4-1-1-1l0,0H61.5c-0.5,0-1,0.4-1,1l0,0
		v9.7C60.5,61.7,60.9,62.1,61.5,62.1L61.5,62.1L61.5,62.1z M46.5,62.1h10.8c0.5,0,1-0.4,1-1l0,0v-9.7c0-0.5-0.4-1-1-1l0,0H46.5
		c-0.5,0-1,0.4-1,1l0,0v9.7C45.5,61.7,45.9,62.1,46.5,62.1L46.5,62.1L46.5,62.1z M31.3,62.1h10.8c0.5,0,1-0.4,1-1l0,0v-9.7
		c0-0.5-0.4-1-1-1l0,0H31.3c-0.5,0-1,0.4-1,1v9.7C30.3,61.7,30.7,62.1,31.3,62.1L31.3,62.1z M16.3,62.1h10.8c0.5,0,1-0.4,1-1l0,0
		v-9.7c0-0.5-0.4-1-1-1l0,0H16.3c-0.5,0-1,0.4-1,1l0,0v9.7C15.4,61.7,15.8,62.1,16.3,62.1L16.3,62.1L16.3,62.1z"/>
</g>
</svg>
